<?xml version="1.0" encoding="iso-8859-1"?>
<!-- Generator: Adobe Illustrator 19.0.0, SVG Export Plug-In . SVG Version: 6.00 Build 0)  -->
<svg version="1.1" id="Layer_1" xmlns="http://www.w3.org/2000/svg" xmlns:xlink="http://www.w3.org/1999/xlink" x="0px" y="0px"
	 viewBox="0 0 512 512" style="enable-background:new 0 0 512 512;" xml:space="preserve">
<g>
	<path style="fill:#34394C;" d="M419.979,479.283H249.541c-4.492,0-8.133-3.64-8.133-8.133v-21.687c0-4.492,3.64-8.133,8.133-8.133
		c4.491,0,8.133,3.64,8.133,8.133v13.554h154.173v-260.38c0-4.492,3.64-8.133,8.133-8.133c4.491,0,8.133,3.64,8.133,8.133V471.15
		C428.112,475.643,424.47,479.283,419.979,479.283z"/>
	<path style="fill:#34394C;" d="M491.465,512H196.221c-4.491,0-8.133-3.64-8.133-8.133v-59.826c0-4.492,3.641-8.133,8.133-8.133
		c4.492,0,8.133,3.64,8.133,8.133v51.693h278.978V201.918c0-4.492,3.64-8.133,8.133-8.133c4.491,0,8.133,3.64,8.133,8.133v301.949
		C499.598,508.359,495.956,512,491.465,512z"/>
</g>
<path style="fill:#48ADE1;" d="M182.287,383.485v18.434v18.43v18.434c0,7.695,6.239,13.934,13.934,13.934
	c7.697,0,13.936-6.239,13.936-13.934v-18.434v-18.43v-18.434H182.287z"/>
<path style="fill:#FF423E;" d="M235.605,383.485v18.434v18.43v18.434c0,7.695,6.239,13.934,13.936,13.934
	c7.695,0,13.934-6.239,13.934-13.934v-18.434v-18.43v-18.434H235.605z"/>
<path style="fill:#828186;" d="M272.109,5.066H26.227C15.387,5.066,6.6,13.855,6.6,24.695v17.337v29.83v17.337V309.11v17.339v29.828
	v17.339c0,10.839,8.788,19.629,19.627,19.629H272.11c10.841,0,19.629-8.789,19.629-19.629v-17.339v-29.828V309.11V97.932V71.861
	v-29.83V24.694C291.737,13.855,282.95,5.066,272.109,5.066z"/>
<g>
	<path style="fill:#ED8A06;" d="M149.167,248.985c-16.291,0-29.544,13.254-29.544,29.544c0,16.291,13.254,29.546,29.544,29.546
		c16.292,0,29.546-13.255,29.546-29.546C178.712,262.239,165.459,248.985,149.167,248.985z"/>
	<path style="fill:#ED8A06;" d="M149.167,205.611c-40.208,0-72.918,32.711-72.918,72.918c0,40.209,32.711,72.92,72.918,72.92
		c40.209,0,72.92-32.712,72.92-72.92C222.086,238.322,189.376,205.611,149.167,205.611z M149.167,335.185
		c-31.239,0-56.653-25.416-56.653-56.655s25.415-56.653,56.653-56.653c31.24,0,56.655,25.415,56.655,56.653
		C205.821,309.77,180.407,335.185,149.167,335.185z"/>
</g>
<g>
	<path style="fill:#BDBEC0;" d="M419.979,120.792c-4.492,0-8.133-3.64-8.133-8.133V8.133c0-4.492,3.64-8.133,8.133-8.133
		c4.491,0,8.133,3.64,8.133,8.133V112.66C428.112,117.152,424.47,120.792,419.979,120.792z"/>
	<path style="fill:#BDBEC0;" d="M491.465,120.792c-4.492,0-8.133-3.64-8.133-8.133V8.133c0-4.492,3.64-8.133,8.133-8.133
		c4.491,0,8.133,3.64,8.133,8.133V112.66C499.598,117.152,495.956,120.792,491.465,120.792z"/>
</g>
<path style="fill:#ED8A06;" d="M149.167,240.853c-20.774,0-37.677,16.903-37.677,37.677c0,20.776,16.903,37.679,37.677,37.679
	c20.776,0,37.679-16.903,37.679-37.679C186.845,257.756,169.943,240.853,149.167,240.853z"/>
<path style="fill:#48ADE1;" d="M492.387,65.09h-1.844c-7.186,0-13.012,5.826-13.012,13.012v110.599
	c0,7.697,6.239,13.936,13.936,13.936c7.695,0,13.934-6.239,13.934-13.936v-35.468v-24.94V78.103
	C505.399,70.917,499.574,65.09,492.387,65.09z"/>
<path style="fill:#79D0F2;" d="M492.387,65.09h-1.844c-7.186,0-13.012,5.826-13.012,13.012v17.863h27.869V78.103
	C505.399,70.917,499.574,65.09,492.387,65.09z"/>
<path style="fill:#FF423E;" d="M420.9,65.09h-1.844c-7.186,0-13.012,5.826-13.012,13.012v110.599
	c0,7.697,6.239,13.936,13.936,13.936c7.695,0,13.934-6.239,13.934-13.936V78.103C433.912,70.917,428.087,65.09,420.9,65.09z"/>
<path style="fill:#FC5E5E;" d="M420.9,65.09h-1.844c-7.186,0-13.012,5.826-13.012,13.012v17.863h27.869V78.103
	C433.912,70.917,428.087,65.09,420.9,65.09z"/>
<path style="fill:#BDBEC0;" d="M86.549,5.066v18.326c0,7.186,5.826,13.012,13.012,13.012h99.212c7.186,0,13.012-5.826,13.012-13.012
	V5.066C211.785,5.066,86.549,5.066,86.549,5.066z"/>
<path style="fill:#48ADE1;" d="M245.22,77.033H53.114c-7.186,0-13.012,5.826-13.012,13.012v61.804
	c0,7.186,5.826,13.012,13.012,13.012h139.797h27.109h25.2c7.186,0,13.012-5.826,13.012-13.012V90.046
	C258.232,82.86,252.406,77.033,245.22,77.033z"/>
<path style="fill:#676570;" d="M28.287,373.616v-17.339v-29.828V309.11V89.199V71.861v-29.83V24.694
	c0-10.839,8.786-19.629,19.627-19.629H26.227C15.387,5.065,6.6,13.854,6.6,24.694v17.337v29.83v17.338V309.11v17.339v29.828v17.339
	c0,10.839,8.788,19.629,19.627,19.629h21.687C37.073,393.244,28.287,384.455,28.287,373.616z"/>
<path style="fill:#ED7E06;" d="M133.176,278.53c0-17.006,11.328-31.41,26.833-36.08c-3.435-1.034-7.074-1.598-10.844-1.598
	c-20.774,0-37.677,16.903-37.677,37.677c0,20.776,16.903,37.679,37.677,37.679c3.769,0,7.408-0.564,10.844-1.598
	C144.505,309.942,133.176,295.538,133.176,278.53z"/>
<path style="fill:#AAADAF;" d="M108.236,23.392V5.066H86.549v18.326c0,7.186,5.826,13.012,13.012,13.012h21.687
	C114.062,36.404,108.236,30.578,108.236,23.392z"/>
<path style="fill:#178BAF;" d="M61.789,151.849V90.046c0-7.186,5.826-13.012,13.012-13.012H53.114
	c-7.186,0-13.012,5.826-13.012,13.012v61.804c0,7.186,5.826,13.012,13.012,13.012h21.687
	C67.615,164.861,61.789,159.035,61.789,151.849z"/>
<g>
	<path style="fill:#625F70;" d="M258.758,210.976h-0.525c-4.492,0-8.133-3.64-8.133-8.133c0-4.492,3.64-8.133,8.133-8.133h0.525
		c4.491,0,8.133,3.64,8.133,8.133C266.891,207.335,263.248,210.976,258.758,210.976z"/>
	<path style="fill:#625F70;" d="M40.102,210.976h-0.525c-4.492,0-8.133-3.64-8.133-8.133c0-4.492,3.64-8.133,8.133-8.133h0.525
		c4.491,0,8.133,3.64,8.133,8.133C48.235,207.335,44.593,210.976,40.102,210.976z"/>
</g>
<g>
	<path style="fill:#ED8A06;" d="M149.167,220.424c-4.491,0-8.133-3.64-8.133-8.133v-9.145c0-4.492,3.641-8.133,8.133-8.133
		s8.133,3.64,8.133,8.133v9.145C157.3,216.783,153.658,220.424,149.167,220.424z"/>
	<path style="fill:#ED8A06;" d="M149.167,362.048c-4.491,0-8.133-3.64-8.133-8.133v-9.145c0-4.492,3.641-8.133,8.133-8.133
		s8.133,3.64,8.133,8.133v9.145C157.3,358.407,153.658,362.048,149.167,362.048z"/>
	<path style="fill:#ED8A06;" d="M82.928,286.662h-9.145c-4.491,0-8.133-3.641-8.133-8.133c0-4.492,3.641-8.133,8.133-8.133h9.145
		c4.491,0,8.133,3.64,8.133,8.133C91.061,283.022,87.419,286.662,82.928,286.662z"/>
	<path style="fill:#ED8A06;" d="M224.552,286.662h-9.145c-4.491,0-8.133-3.641-8.133-8.133c0-4.492,3.641-8.133,8.133-8.133h9.145
		c4.491,0,8.133,3.64,8.133,8.133C232.685,283.022,229.044,286.662,224.552,286.662z"/>
	<path style="fill:#ED8A06;" d="M83.889,324.355c-2.811,0-5.544-1.46-7.05-4.069c-2.245-3.891-0.912-8.863,2.978-11.109l7.919-4.571
		c3.89-2.246,8.865-0.911,11.109,2.979c2.246,3.891,0.912,8.863-2.979,11.109l-7.919,4.571
		C86.668,324.005,85.27,324.355,83.889,324.355z"/>
	<path style="fill:#ED8A06;" d="M111.469,351.949c-1.38,0-2.779-0.351-4.06-1.091c-3.89-2.246-5.222-7.22-2.975-11.109l4.573-7.919
		c2.245-3.892,7.219-5.222,11.109-2.977c3.89,2.246,5.221,7.22,2.977,11.109l-4.573,7.919
		C117.012,350.491,114.278,351.949,111.469,351.949z"/>
	<path style="fill:#ED8A06;" d="M182.28,229.299c-1.38,0-2.778-0.351-4.059-1.091c-3.89-2.246-5.221-7.22-2.977-11.109l4.573-7.919
		c2.247-3.892,7.22-5.22,11.11-2.977c3.89,2.246,5.222,7.22,2.975,11.109l-4.573,7.919
		C187.824,227.84,185.089,229.299,182.28,229.299z"/>
	<path style="fill:#ED8A06;" d="M214.444,324.355c-1.378,0-2.777-0.35-4.058-1.09l-7.919-4.571
		c-3.89-2.246-5.222-7.219-2.978-11.109c2.245-3.891,7.22-5.223,11.108-2.979l7.919,4.571c3.891,2.246,5.224,7.219,2.979,11.109
		C219.989,322.896,217.255,324.355,214.444,324.355z"/>
	<path style="fill:#ED8A06;" d="M91.793,253.544c-1.379,0-2.778-0.351-4.059-1.091l-7.919-4.573
		c-3.89-2.246-5.221-7.22-2.977-11.109c2.247-3.892,7.22-5.221,11.11-2.977l7.919,4.573c3.89,2.246,5.222,7.22,2.975,11.109
		C97.338,252.087,94.604,253.544,91.793,253.544z"/>
	<path style="fill:#ED8A06;" d="M186.867,351.949c-2.811,0-5.543-1.458-7.05-4.067l-4.573-7.919
		c-2.245-3.89-0.913-8.863,2.977-11.109c3.89-2.245,8.865-0.914,11.109,2.977l4.573,7.919c2.247,3.89,0.914,8.863-2.975,11.109
		C189.645,351.597,188.248,351.949,186.867,351.949z"/>
	<path style="fill:#ED8A06;" d="M116.053,229.299c-2.811,0-5.544-1.458-7.05-4.067l-4.571-7.919
		c-2.247-3.891-0.913-8.865,2.977-11.109c3.887-2.245,8.865-0.913,11.109,2.977l4.571,7.919c2.247,3.891,0.913,8.865-2.977,11.109
		C118.832,228.948,117.435,229.299,116.053,229.299z"/>
</g>
<path style="fill:#FFCE54;" d="M149.167,343.317c-35.722,0-64.786-29.064-64.786-64.788c0-35.722,29.064-64.786,64.786-64.786
	c35.724,0,64.788,29.064,64.788,64.786C213.954,314.255,184.891,343.317,149.167,343.317z M149.167,240.853
	c-20.774,0-37.677,16.903-37.677,37.677c0,20.776,16.903,37.679,37.677,37.679c20.776,0,37.679-16.903,37.679-37.679
	C186.845,257.756,169.943,240.853,149.167,240.853z"/>
<path style="fill:#EA6D07;" d="M149.175,286.663c-2.811,0-5.543-1.458-7.05-4.067c-2.245-3.89-0.913-8.863,2.978-11.109
	l65.283-37.692c3.888-2.245,8.863-0.913,11.108,2.977c2.247,3.89,0.914,8.863-2.975,11.109l-65.283,37.692
	C151.954,286.312,150.556,286.663,149.175,286.663z"/>
<polygon style="fill:#178BAF;" points="182.287,393.244 182.287,401.919 182.287,414.931 210.156,414.931 210.156,401.919 
	210.156,393.244 "/>
<polygon style="fill:#C12323;" points="235.605,393.244 235.605,401.919 235.605,414.931 263.475,414.931 263.475,401.919 
	263.475,393.244 "/>
<g>
</g>
<g>
</g>
<g>
</g>
<g>
</g>
<g>
</g>
<g>
</g>
<g>
</g>
<g>
</g>
<g>
</g>
<g>
</g>
<g>
</g>
<g>
</g>
<g>
</g>
<g>
</g>
<g>
</g>
</svg>
