<?xml version="1.0"?>
<svg xmlns="http://www.w3.org/2000/svg" viewBox="0 0 64 64" width="512" height="512"><title>flat-condominium-office-hotel-Building</title><g id="Fill_Outline" data-name="Fill Outline"><rect x="13" y="11" width="38" height="50" style="fill:#dfd9d3"/><rect x="32" y="11" width="19" height="50" style="fill:#c7c2bc"/><rect x="13" y="57" width="12" height="4" style="fill:#6e6350"/><rect x="39" y="57" width="12" height="4" style="fill:#6e6350"/><path d="M16,61a3,3,0,1,0-1.116-5.78,2.975,2.975,0,0,0-4-2,2.992,2.992,0,1,0-5.664,1.9A2.993,2.993,0,0,0,6,61Z" style="fill:#8cc63f"/><path d="M48,61a3,3,0,1,1,1.116-5.78,2.975,2.975,0,0,1,4-2,2.992,2.992,0,1,1,5.664,1.9A2.993,2.993,0,0,1,58,61Z" style="fill:#8cc63f"/><rect x="11" y="8" width="42" height="4" style="fill:#95866d"/><rect x="16" y="49" width="2" height="2" style="fill:#b4b0aa"/><rect x="46" y="49" width="2" height="2" style="fill:#b4b0aa"/><rect x="8" y="18" width="2" height="18" style="fill:#dfd9d3"/><rect x="54" y="32" width="2" height="15" style="fill:#dfd9d3"/><rect x="27" y="3" width="19" height="2" style="fill:#dfd9d3"/><rect x="48" y="3" width="2" height="2" style="fill:#dfd9d3"/><rect x="25" y="51" width="7" height="10" style="fill:#56a8c6"/><rect x="32" y="51" width="7" height="10" style="fill:#80c5d4"/><rect x="22" y="50" width="20" height="2" style="fill:#6e6350"/><rect x="18" y="34" width="4" height="8" style="fill:#56a8c6"/><rect x="22" y="34" width="4" height="8" style="fill:#80c5d4"/><rect x="38" y="34" width="4" height="8" style="fill:#56a8c6"/><rect x="42" y="34" width="4" height="8" style="fill:#80c5d4"/><rect x="18" y="17" width="4" height="8" style="fill:#56a8c6"/><rect x="22" y="17" width="4" height="8" style="fill:#80c5d4"/><rect x="38" y="17" width="4" height="8" style="fill:#56a8c6"/><rect x="42" y="17" width="4" height="8" style="fill:#80c5d4"/><rect x="13" y="42" width="38" height="4" style="fill:#95866d"/><rect x="13" y="25" width="38" height="4" style="fill:#95866d"/></g></svg>
