<svg id="Layer_1" height="512" viewBox="0 0 512 512" width="512" xmlns="http://www.w3.org/2000/svg" data-name="Layer 1"><path d="m159.79 57.57h-19.96a2.87 2.87 0 0 0 -2.87 2.87v158.21h12.22l13.48-39.66v-118.55a2.876 2.876 0 0 0 -2.87-2.87z" fill="#978cac"/><path d="m461.23 56.755c0-15.32-12.93-27.755-28.88-27.755h-222.49c10.27 0 18.14 8.34 18.14 18.61l.22 156.04 36.006 99.467 197.084-5.169z" fill="#ddecf5"/><path d="m228.45 167.65c-3.8-.21-7.7-.32-11.68-.32-22.14 0-41.78 3.4-54.11 8.66-8.47 3.6-13.48 8.208-13.48 13.058l-.18-.048v236.665c0 9.8 20.411 18.077 48.42 20.71a121.149 121.149 0 0 0 21.832.858c36.041-.462 64.748-9.942 64.748-21.568l.36-236.745c0-10.65-24.15-19.5-55.91-21.27z" fill="#f9d438"/><path d="m227.42 446.375c-28.009-2.633-48.42-10.908-48.42-20.71v-236.665l.18.048c0-4.85 5.01-9.458 13.48-13.058 9.466-4.038 23.248-6.973 39.154-8.122-1.112-.08-2.232-.155-3.364-.218-3.8-.21-7.7-.32-11.68-.32-22.14 0-41.78 3.4-54.11 8.66-8.47 3.6-13.48 8.208-13.48 13.058l-.18-.048v236.665c0 9.8 20.411 18.077 48.42 20.71a121.149 121.149 0 0 0 21.832.858c3.93-.05 7.765-.214 11.493-.47-1.108-.114-2.216-.239-3.325-.388z" fill="#ddbf40"/><path d="m235.96 283.49-19.85 37.64c-11.11 0-54.76-2.57-66.93-12.61v-45.73c0 11.92 30.26 21.58 67.59 21.58 8.42 0 11.75.02 19.19-.88z" fill="#edb740"/><path d="m216.77 210.51c37.33 0 67.59-9.67 67.59-21.59l-.42 37.9c0 11.92-29.84 20.8-67.17 20.8s-67.59-9.66-67.59-21.59v-37.11c0 11.92 30.26 21.59 67.59 21.59z" fill="#edb740"/><path d="m284.355 388.385v5.28c0 11.92-30.26 21.59-67.58 21.59s-67.59-9.67-67.59-21.59v-38.92c0 11.92 30.26 21.58 67.59 21.58s67.58-9.66 67.58-21.58z" fill="#edb740"/><path d="m113.94 109.15v109.5h-25.7v-109.5a2.87 2.87 0 0 1 2.87-2.87h19.96a2.87 2.87 0 0 1 2.87 2.87z" fill="#e87187"/><path d="m66.2 138.37v80.28h-25.7v-80.28a2.87 2.87 0 0 1 2.87-2.87h19.96a2.876 2.876 0 0 1 2.87 2.87z" fill="#978cac"/><path d="m279.03 269.49-20.77-12.52a6.961 6.961 0 0 0 -9.74 2.69l-58.53 111.02a6.824 6.824 0 0 0 2.74 9.15l20.89 11.67a6.961 6.961 0 0 0 9.53-2.79l58.41-110.17a6.728 6.728 0 0 0 .8-3.18 6.847 6.847 0 0 0 -3.33-5.87z" fill="#5fa8ed"/><path d="m448.94 405.87-31.24-26.72-59.47-58.24a27.125 27.125 0 0 0 -11.67-6.74l-10.22-2.85-32.12-18.71c-1.05-.53-8.64-4.03-20.98-2.34a56.461 56.461 0 0 0 -8.96 2l-45.54 85.89 17.22 14.22 84.59 78.67 12.91 10.25a15.933 15.933 0 0 0 22.32-1.62 15.567 15.567 0 0 0 -1.63-22.1l6.95 5.94a15.907 15.907 0 0 0 22.31-1.61 15.567 15.567 0 0 0 -1.63-22.1l6.95 5.94a15.907 15.907 0 0 0 22.31-1.61 15.571 15.571 0 0 0 -1.5-21.99c2.89 2.47 5.74 4.92 8.36 7.16a15.945 15.945 0 0 0 22.37-1.68l.26-.29a15.115 15.115 0 0 0 -1.59-21.47z" fill="#ffd8b7"/><path d="m495.34 369.86-53.32-112.67a6.948 6.948 0 0 0 -8.81-3.47l-22.61 8.83a6.832 6.832 0 0 0 -3.73 9.31l53.93 113.28a6.952 6.952 0 0 0 9.02 3.37l22-9.44a6.833 6.833 0 0 0 3.52-9.21z" fill="#4ca987"/><path d="m307.22 430.24a14.486 14.486 0 0 0 -19.94 3.11.755.755 0 0 0 -.11.14l-10.83 14.89a1.526 1.526 0 0 0 -.11.16 14.324 14.324 0 0 0 3.38 19.94 14.5 14.5 0 0 0 20.02-3.22 1.526 1.526 0 0 1 .11-.16l10.74-14.77a14.308 14.308 0 0 0 -3.26-20.09z" fill="#ffd39f"/><path d="m331.74 465.35a14.215 14.215 0 0 1 -1.19 5.7 14.563 14.563 0 0 1 -1.56 2.72l-5.93 8.15a14.509 14.509 0 0 1 -20.06 3.26 14.308 14.308 0 0 1 -3.37-19.92 1.526 1.526 0 0 1 .11-.16l5.94-8.17c.01-.02.03-.03.04-.05a14.489 14.489 0 0 1 20.01-3.2 14.3 14.3 0 0 1 6.01 11.67z" fill="#efc597"/><path d="m288.7 406.8a14.406 14.406 0 0 0 -19.95 3.14l-15.92 21.88a14.358 14.358 0 0 0 3.36 19.95 14.519 14.519 0 0 0 20.04-3.23 1.526 1.526 0 0 1 .11-.16l15.63-21.48a14.336 14.336 0 0 0 -3.27-20.1z" fill="#efc597"/><path d="m304.22 292.61a29.883 29.883 0 0 1 12.4-7.57l21.81-6.83a30.174 30.174 0 0 1 17.13-.28l22.59 6.29c9.88 2.75 16.83 3.08 26.87.94l6.77-2.85.04-.02 45.71 96.01a39.136 39.136 0 0 1 -19.85 17.95l-19.99-17.1-59.47-58.24a27.125 27.125 0 0 0 -11.67-6.74l-10.22-2.85c-11.67.05-14.32 15.6-14.32 15.6-.03.41-.07.82-.1 1.22a27.807 27.807 0 0 1 -12.51 20.58 29.159 29.159 0 0 1 -27.75 2.07l-1.44-.63 6.65-20.1q2.055-6.18 4.54-12.2l6.66-16.08a29.617 29.617 0 0 1 6.15-9.17z" fill="#ffd39f"/><path d="m271.28 381.87a14.483 14.483 0 0 0 -20.04 3.25l-21.71 29.85a14.329 14.329 0 0 0 3.27 20.1 14.481 14.481 0 0 0 20.03-3.25l21.72-29.86a14.324 14.324 0 0 0 -3.27-20.09z" fill="#ffd39f"/><path d="m228.46 47.61v26.86h-37.19v-26.86a18.6 18.6 0 1 1 37.19 0z" fill="#b6cad3"/><path d="m149 354.745v38.92c0 5.963 7.758 11.363 20 15.271v-38.925c-12.242-3.906-20-9.303-20-15.266z" fill="#ba964d"/><path d="m149.365 318.48c-5.33-.95-11.223-1.535-17.393-2l-83.972 35.52v102.15c0 11.92 30.675 21.59 68.005 21.59s68-9.67 68-21.59v-116.77c-.005-8.14-13.79-15.23-34.64-18.9z" fill="#f9d438"/><path d="m78 454.15v-114.838l-30 12.688v102.15c0 11.92 30.675 21.59 68.005 21.59 5.149 0 10.165-.19 15-.539-30.205-2.179-53.005-10.776-53.005-21.051z" fill="#ddbf40"/><path d="m116.005 439.53c-37.33 0-68-9.67-68-21.59v36.21c0 11.92 30.675 21.59 68.005 21.59s68-9.67 68-21.59v-36.21c-.01 11.92-30.685 21.59-68.005 21.59z" fill="#edb740"/><path d="m116.235 358.96c-12.4 0-21.052.245-31.042-1.615l-37.193-5.345v27.02c0 11.92 30.675 21.58 68.005 21.58s68-9.66 68-21.58v-41.64c-.005 11.92-30.45 21.58-67.77 21.58z" fill="#edb740"/><path d="m78 454.15v-18.327c-18.053-3.883-30-10.445-30-17.883v36.21c0 11.92 30.675 21.59 68.005 21.59 5.149 0 10.165-.19 15-.539-30.205-2.179-53.005-10.776-53.005-21.051z" fill="#c4973f"/><path d="m78 396.9v-40.589l-30-4.311v27.02c0 7.438 11.947 13.996 30 17.88z" fill="#c4973f"/><path d="m132.187 316.451a59.347 59.347 0 0 1 -47.033 41.081 60.365 60.365 0 0 1 -36.838-5.5 58.748 58.748 0 0 1 -32.636-52.492c0-32.485 26.643-58.826 59.5-58.826s59.5 26.341 59.5 58.826a58.386 58.386 0 0 1 -2.493 16.911z" fill="#eab64e"/><path d="m78.316 352.032a58.612 58.612 0 0 1 11.864-109.432 60.224 60.224 0 0 0 -15-1.889c-32.857 0-59.5 26.341-59.5 58.826a58.748 58.748 0 0 0 32.636 52.492 60.365 60.365 0 0 0 36.838 5.5c1.71-.285 3.392-.651 5.05-1.077a59.492 59.492 0 0 1 -11.888-4.42z" fill="#c99b4b"/><path d="m149 262.79v45.73c6 4.53 17.572 7.535 30 9.474v-37.305c-17.99-3.877-30-10.446-30-17.899z" fill="#bc923f"/><path d="m149 188.92v37.11c0 7.459 12.01 14.03 30 17.909v-37.113c-17.99-3.88-30-10.453-30-17.906z" fill="#bc923f"/><g fill="#324d6d"><path d="m138.193 47.614q.189.012.375.012a6 6 0 0 0 5.983-5.626l.886-14.389.006-.109a8.575 8.575 0 0 0 -2.153-6.051c-.036-.043-.061-.093-.1-.136-.065-.073-.145-.125-.213-.194a8.568 8.568 0 0 0 -5.657-2.591c-.067 0-.133-.006-.2-.007l-15.664-.356a6 6 0 1 0 -.272 12l3.082.071-91.509 82.1a6 6 0 1 0 8.013 8.932l91.956-82.5-.154 2.5a6 6 0 0 0 5.621 6.344z"/><path d="m315.939 72.766h105.146a6 6 0 0 0 0-12h-105.146a6 6 0 1 0 0 12z"/><path d="m315.939 110.843h105.146a6 6 0 0 0 0-12h-105.146a6 6 0 0 0 0 12z"/><path d="m261.68 149.9h.073l163.978-1.949a6 6 0 0 0 -.07-12h-.073l-163.977 1.949a6 6 0 0 0 .069 12z"/><path d="m425.613 175h-120.086a6 6 0 0 0 0 12h120.086a6 6 0 0 0 0-12z"/><path d="m425.613 213.075h-114.24a6 6 0 0 0 0 12h114.24a6 6 0 0 0 0-12z"/><path d="m385.665 251.153h-74.292a6 6 0 0 0 0 12h74.292a6 6 0 0 0 0-12z"/><path d="m276.144 92.232a6.2 6.2 0 1 1 0 12.383 6.517 6.517 0 0 1 -5.184-2.492 6 6 0 1 0 -9.46 7.377 18.357 18.357 0 0 0 8.8 6.181 6 6 0 0 0 12-.08v-.05a18.144 18.144 0 0 0 -6.152-35.323 6.19 6.19 0 1 1 -.189-12.374c.114.006.226.017.341.017.057 0 .113-.007.17-.008a6.493 6.493 0 0 1 4.863 2.475 6 6 0 0 0 9.46-7.383 18.377 18.377 0 0 0 -8.493-6.082v-.8a6 6 0 0 0 -12 0v.727a18.15 18.15 0 0 0 5.848 35.433z"/><path d="m206.424 102.953a6 6 0 0 0 6-6v-3.4a6 6 0 1 0 -12 0v3.4a6 6 0 0 0 6 6z"/><path d="m200.424 147.882a6 6 0 0 0 12 0v-32.957a6 6 0 1 0 -12 0z"/><path d="m467.31 296.6-.083-239.84c0-18.609-15.648-33.748-34.882-33.748h-222.481a24.623 24.623 0 0 0 -24.6 24.6v26.86a6 6 0 0 0 6 6h31.196v80.942c-1.885-.049-3.782-.08-5.692-.08-17.966 0-34.963 2.182-48.11 6.149v-107.041a8.881 8.881 0 0 0 -8.871-8.87h-19.959a8.881 8.881 0 0 0 -8.871 8.87v152.21h-11.017v-103.502a8.881 8.881 0 0 0 -8.871-8.871h-19.958a8.882 8.882 0 0 0 -8.871 8.871v103.5h-10.04v-74.275a8.881 8.881 0 0 0 -8.871-8.871h-19.96a8.88 8.88 0 0 0 -8.871 8.871v74.277h-12.498v-161.093a6 6 0 0 0 -12 0v167.093a6 6 0 0 0 6 6h127.179v86.848q-1.934-.257-3.876-.471a63.923 63.923 0 0 0 1.056-11.49c0-35.568-29.239-64.505-65.18-64.505s-65.179 28.936-65.179 64.504a64.409 64.409 0 0 0 32.461 55.753v98.856c0 6.079 4.159 14.653 23.971 20.981 13.34 4.261 30.961 6.607 49.618 6.607s36.278-2.346 49.618-6.607c19.812-6.328 23.971-14.9 23.971-20.981v-2.913a120.888 120.888 0 0 0 23 2.118 144.219 144.219 0 0 0 33.749-4.043 20.214 20.214 0 0 0 6.317 7.343 20.3 20.3 0 0 0 11.827 3.781 20.729 20.729 0 0 0 3.348-.278 20.19 20.19 0 0 0 8.243 13.21 20.281 20.281 0 0 0 11.82 3.779 20.618 20.618 0 0 0 3.339-.277 20.319 20.319 0 0 0 20.064 16.977 20.442 20.442 0 0 0 16.567-8.394l4.073-5.6 7.668 6.082a21.961 21.961 0 0 0 30.644-2.308 21.449 21.449 0 0 0 5.1-11.151 21.923 21.923 0 0 0 22.529-6.619 21.453 21.453 0 0 0 5.1-11.151 21.922 21.922 0 0 0 22.529-6.62 21.458 21.458 0 0 0 4.968-10.375 22.022 22.022 0 0 0 24.258-6.129l.263-.3a21.115 21.115 0 0 0 -2.209-29.964l-4.608-3.941a46.457 46.457 0 0 0 8.483-7.449 12.885 12.885 0 0 0 10.317 5.167 13.02 13.02 0 0 0 5.15-1.066l22-9.443a12.837 12.837 0 0 0 6.575-17.29zm-407.11-83.948h-13.7v-71.152h13.7zm47.742 0h-13.702v-100.373h13.7zm324.403-177.638c12.618 0 22.882 9.756 22.882 21.75l.075 214.464-7.858-16.6a12.981 12.981 0 0 0 -16.416-6.494l-22.613 8.826a12.839 12.839 0 0 0 -6.962 17.481l2.268 4.763-.5.209c-8.587 1.76-14.583 1.5-23.467-.971l-22.591-6.29a36.122 36.122 0 0 0 -20.533.329l-21.8 6.832a35.974 35.974 0 0 0 -11.927 6.4 45.122 45.122 0 0 0 -13.6-1.87l1.048-94.851c0-.022 0-.044 0-.066 0-6.078-4.158-14.652-23.97-20.98a147.614 147.614 0 0 0 -31.926-5.879v-114.458a24.434 24.434 0 0 0 -3.481-12.595zm-235.077 33.458v-20.863a12.6 12.6 0 0 1 25.192 0v20.863zm19.5 104.862c40.625 0 61.578 10.921 61.588 15.583v.008c-.011 4.664-20.965 15.584-61.588 15.584s-61.589-10.926-61.589-15.588 20.954-15.587 61.589-15.587zm1.083 212.566a.9.9 0 0 1 -.552.442.949.949 0 0 1 -.756-.083l-20.89-11.662a.826.826 0 0 1 -.357-1.118l58.535-111.02a.9.9 0 0 1 .567-.448 1.036 1.036 0 0 1 .273-.037.949.949 0 0 1 .5.139l20.761 12.516a.829.829 0 0 1 .329 1.105zm12.747 1.576 7.19 5.941-10.3 14.165c-11.764 3.58-29.455 1.428-37.852.067v-22.682c.058.033.11.072.168.1l20.889 11.662a12.886 12.886 0 0 0 6.307 1.658 13.066 13.066 0 0 0 3.7-.538 12.822 12.822 0 0 0 7.757-6.33zm-63.449-103.709c13.341 4.26 30.962 6.607 49.619 6.607h.771c3.186 0 5.687 0 8.041-.067l-13.052 24.755c-6.691-.2-17.678-.911-28.667-2.418-17.033-2.338-25.033-5.344-28.682-7.334v-26.564a65.321 65.321 0 0 0 11.97 5.021zm-11.97-20.981v-20.792a65.251 65.251 0 0 0 11.97 5.021c13.341 4.26 30.962 6.607 49.619 6.607a210.972 210.972 0 0 0 32.3-2.364 12.936 12.936 0 0 0 -5.848 5.6l-11.083 21.02a125.53 125.53 0 0 1 -14.967.5h-.4c-40.637-.004-61.591-10.93-61.591-15.592zm106.184-10.951a12.961 12.961 0 0 0 -5.543-1.792c8.571-1.761 16.125-4.2 21.941-7.333l-.209 18.884zm1.232-15.883c-11.947 3.656-28.222 5.67-45.827 5.67-40.635 0-61.589-10.926-61.589-15.587v-21.155a65.182 65.182 0 0 0 11.97 5.021c13.341 4.261 30.962 6.608 49.619 6.608s36.278-2.347 49.618-6.608a65.636 65.636 0 0 0 11.792-4.924l-.241 21.847c-.013 1.163-2.846 5.304-15.337 9.128zm-119.638-23.3v-149.08h13.7v108.6c-10.872 5.581-13.478 11.944-13.478 16.748v23.731zm-120.957 86.886c0-28.951 23.856-52.505 53.179-52.505s53.18 23.554 53.18 52.505-23.856 52.5-53.18 52.5-53.179-23.549-53.179-52.5zm155.635 154.609c0 4.663-20.954 15.588-61.589 15.588s-61.589-10.925-61.589-15.588v-20.247a65.256 65.256 0 0 0 11.97 5.02c13.34 4.261 30.961 6.607 49.618 6.607s36.278-2.346 49.618-6.607a65.264 65.264 0 0 0 11.971-5.021zm0-36.207c0 4.661-20.954 15.586-61.589 15.586-40.6 0-61.552-10.907-61.587-15.574v-22.976a65.264 65.264 0 0 0 11.969 5.024c13.34 4.261 30.961 6.608 49.618 6.608s36.278-2.347 49.618-6.608a65.268 65.268 0 0 0 11.971-5.02zm0-38.924c0 4.661-20.954 15.587-61.589 15.587-40.565 0-61.513-10.887-61.586-15.562v-18.359a65.778 65.778 0 0 0 30.58 2.622c8.937 1.566 16.722 1.661 26.924 1.661h4.081c18.656 0 36.278-2.347 49.618-6.608a65.2 65.2 0 0 0 11.971-5.02zm-61.589-26.053h-4.382a64.972 64.972 0 0 0 24.315-30.222c29.581 2.9 41.656 11.38 41.656 14.635 0 4.661-20.954 15.587-61.589 15.587zm66.47-28.394c8.545 1.162 17.117 1.867 23.822 2.233l-16.7 31.68v-21.106c-.003-5.019-2.667-9.262-7.122-12.807zm7.119 114.407v-19.176a148.341 148.341 0 0 0 21.406 1.711 91.468 91.468 0 0 0 9.894-.516 20.425 20.425 0 0 0 .116 5.668 20.2 20.2 0 0 0 8.26 13.291c.138.1.283.182.423.277-12.429 1.639-26.634 1.742-40.099-1.255zm58.44-10.818-.006.01-.088.12a8.443 8.443 0 0 1 -11.7 1.9 8.334 8.334 0 0 1 -1.9-11.686l21.707-29.848a8.447 8.447 0 0 1 11.709-1.9 8.326 8.326 0 0 1 1.9 11.676zm23.325 16.823a8.457 8.457 0 0 1 -11.719 1.9 8.32 8.32 0 0 1 -1.9-11.667l15.736-21.637a8.439 8.439 0 0 1 11.7-1.9 8.332 8.332 0 0 1 1.9 11.686zm23.492 16.588-.007.01-.087.12a8.443 8.443 0 0 1 -11.7 1.9 8.335 8.335 0 0 1 -1.9-11.683l10.831-14.893a8.446 8.446 0 0 1 11.708-1.9 8.327 8.327 0 0 1 1.9 11.677zm29.252 8.667-5.931 8.157a8.459 8.459 0 0 1 -11.719 1.9 8.32 8.32 0 0 1 -1.9-11.667l5.942-8.171a8.448 8.448 0 0 1 11.707-1.9 8.324 8.324 0 0 1 1.9 11.676zm124.1-53.508a9.071 9.071 0 0 1 -2.232 6.663l-.262.3a9.963 9.963 0 0 1 -13.946 1.059l-30.746-26.317-.141-.121a6 6 0 0 0 -7.8 9.118l.136.116 22.3 19.086a9.567 9.567 0 0 1 .971 13.565 9.922 9.922 0 0 1 -13.889 1l-22.4-19.167a6 6 0 0 0 -7.8 9.117l15.447 13.219a9.57 9.57 0 0 1 1.009 13.6 9.922 9.922 0 0 1 -13.888 1l-15.447-13.219a6 6 0 0 0 -7.8 9.117l8.5 7.271a9.569 9.569 0 0 1 1.009 13.6 9.92 9.92 0 0 1 -13.889 1l-9.947-7.9a20.261 20.261 0 0 0 -18.465-23.735 20.265 20.265 0 0 0 -18.513-23.437 20.3 20.3 0 0 0 -17.713-23.38 20.395 20.395 0 0 0 -36.354-16.685l-1.524 2.1-8.523-7.042 42.037-79.289a42.577 42.577 0 0 1 15.834-1.295 36.056 36.056 0 0 0 -1.678 3.417l-6.662 16.08c-1.71 4.127-3.288 8.37-4.692 12.614l-6.648 20.1a6 6 0 0 0 3.274 7.373l1.432.632a34.916 34.916 0 0 0 33.477-2.559 33.811 33.811 0 0 0 15.176-25c.032-.334.062-.671.088-1.011.307-1.448 2.293-9.675 7.7-10.35l9.27 2.59a21.153 21.153 0 0 1 9.083 5.238l59.472 58.242 31.546 27a9.108 9.108 0 0 1 3.197 6.29zm-9.579-27.54-16.913-14.464-59.326-58.106a33.2 33.2 0 0 0 -14.251-8.222l-10.219-2.855a5.493 5.493 0 0 0 -1.639-.222c-6.991.029-12.951 3.917-16.783 10.949a33.875 33.875 0 0 0 -3.431 9.644l-.158 1.645a21.864 21.864 0 0 1 -9.841 16.15 23.049 23.049 0 0 1 -18.372 2.866l4.838-14.631c1.312-3.965 2.787-7.931 4.385-11.787l6.639-16.024a23.8 23.8 0 0 1 14.826-13.368l21.8-6.832a24.137 24.137 0 0 1 13.726-.22l22.592 6.289c10.913 3.039 18.97 3.318 29.73 1.033l2.616-.987 41.875 87.96a34.318 34.318 0 0 1 -12.095 11.182zm51.282-16.13a.875.875 0 0 1 -.488.5l-22 9.443a.955.955 0 0 1 -1.236-.435l-53.935-113.286a.777.777 0 0 1 -.022-.645.875.875 0 0 1 .512-.5l22.613-8.826a.96.96 0 0 1 1.207.449l53.322 112.668a.786.786 0 0 1 .026.632z"/><path d="m82.1 330.084a18.147 18.147 0 0 0 -6-35.378 6.188 6.188 0 1 1 -.256-12.37c.085 0 .17.013.256.013s.16-.009.24-.013a6.5 6.5 0 0 1 4.945 2.479 6 6 0 0 0 9.46-7.382 18.356 18.356 0 0 0 -8.645-6.133v-.752a6 6 0 0 0 -12 0v.778a18.146 18.146 0 0 0 6 35.377 6.2 6.2 0 1 1 0 12.383 6.519 6.519 0 0 1 -5.185-2.492 6 6 0 0 0 -9.459 7.382 18.363 18.363 0 0 0 8.644 6.134 6 6 0 0 0 12-.026z"/></g></svg>