<svg id="Capa_1" enable-background="new 0 0 512.875 512.875" height="512" viewBox="0 0 512.875 512.875" width="512" xmlns="http://www.w3.org/2000/svg"><g id="Outline_17_" fill="#233d91"><path d="m86.462 429.554c0-18.175-14.787-32.962-32.962-32.962-12.406 0-22.5 10.093-22.5 22.5s10.094 22.5 22.5 22.5h32.962zm-32.962-2.962c-9.926 0-9.916-15 0-15 8.896 0 16.301 6.5 17.718 15z"/><path d="m248.5 419.092c0-12.407-10.094-22.5-22.5-22.5-18.727 0-33.962 15.235-33.962 33.962v11.038h33.962c12.406 0 22.5-10.093 22.5-22.5zm-15 0c0 4.136-3.364 7.5-7.5 7.5h-18.546c3.498-16.389 26.046-19.92 26.046-7.5z"/><path d="m99.75 426.592h79v15h-79z"/><path d="m99.75 400.992h15v15h-15z"/><path d="m131.75 400.992h15v15h-15z"/><path d="m163.75 400.992h15v15h-15z"/><path d="m361.5 419.092c0-12.407-10.094-22.5-22.5-22.5-18.727 0-33.962 15.235-33.962 33.962v11.038h33.962c12.406 0 22.5-10.093 22.5-22.5zm-15 0c0 4.136-3.364 7.5-7.5 7.5h-18.546c3.498-16.389 26.046-19.92 26.046-7.5z"/><path d="m446 396.592c-18.727 0-33.962 15.235-33.962 33.962v11.038h33.962c12.406 0 22.5-10.093 22.5-22.5s-10.094-22.5-22.5-22.5zm0 30h-18.546c3.498-16.389 26.046-19.921 26.046-7.5 0 4.136-3.364 7.5-7.5 7.5z"/><path d="m103.112 329.517h37.628v15h-37.628z" transform="matrix(.8 -.6 .6 .8 -177.79 140.505)"/><path d="m147.76 333.304h37.628v15h-37.628z" transform="matrix(.8 -.6 .6 .8 -171.136 168.044)"/><path d="m512.875 97.832v-45.351l-237.375-51.631-237.375 51.631v45.351l23.375-5.084v202.689h-3.035l-13.378 40.578h-22.587c-25.934 0-29.521 37.809-3.981 42.615-25.191 22.594-15.268 50.834-17.519 72.766 0 10.369 8.436 18.804 18.804 18.804h3.805c.505 12.779-1.386 18.565 2.57 26.825h-26.179v15h512v-15h-39.678c3.956-8.259 2.065-14.035 2.57-26.825h3.805c10.368 0 18.804-8.436 18.804-18.804-2.129-20.737 7.596-50.241-17.519-72.766 17.93-3.375 23.786-26.278 9.519-37.826v-248.056zm-443.561 212.605h139.871l17.663 53.578c-9.103 0-168.664 0-175.197 0zm299.686 25.577h-22.587l-8.432-25.578h91.205l17.663 53.578h-57.359c4.419-13.901-6.04-28-20.49-28zm-108.612 43h87.495c4.54 4.348 27.617 12.92 27.617 38.851v33.531c0 5.422 2.29 3.804-98.388 3.804.68-3.294.258-2.52.388-37.335 0-14.886-6.298-28.942-17.112-38.851zm-4.388-43h-22.587l-8.432-25.578h97.205l17.663 53.578h-63.359c4.419-13.901-6.04-28-20.49-28zm0 15c8.603 0 8.593 13 0 13h-13.356l-4.286-13zm99.644 13-4.286-13h17.642c8.603 0 8.593 13 0 13zm84.391-68.577c-17.119 0-346.32 0-363.535 0v-205.952l199-43.284 199 43.284v246.53h-21.087zm-417.535 55.577h17.642l-4.286 13h-13.356c-8.603 0-8.593-13 0-13zm-2.696 104.186c-6.71 0-2.516-9.163-3.804-37.335 0-25.892 23.189-34.611 27.617-38.851h191.266c4.54 4.348 27.617 12.92 27.617 38.851-1.273 27.853 2.951 37.335-3.804 37.335-25.989 0-212.758 0-238.892 0zm41.484 30.485c0 15.009-22.68 14.99-22.68 0v-15.485h22.68zm12.43 11.34c3.957-8.26 2.065-14.036 2.57-26.825h125.924c.505 12.774-1.386 18.566 2.57 26.825zm166.174-11.34c0 15.009-22.68 14.99-22.68 0v-15.485h22.68zm12.43 11.34c3.956-8.259 2.065-14.035 2.57-26.825 2.462-.18 6.643.702 11.998-1.905v1.905h48.322c.505 12.774-1.386 18.566 2.57 26.825zm100.57-11.34c0 15.009-22.68 14.99-22.68 0v-15.485h22.68zm12.43 11.34c3.956-8.259 2.065-14.035 2.57-26.825 3.393-.035 4.063.087 5.998-.139v.139h48.322c.505 12.774-1.386 18.566 2.57 26.825zm94.57-11.34c0 15.009-22.68 14.99-22.68 0v-15.485h22.68zm22.608-34.289c0 5.365 1.841 3.804-92.388 3.804.254-1.229.388-2.501.388-3.804-2.225-22.074 7.589-49.749-17.112-72.382h81.495l11.313 7.803c23.887 16.472 14.149 44.234 16.304 64.579zm-6.5-87.382h-13.356l-4.286-13h17.642c8.603 0 8.593 13 0 13zm-200.5-333.164-222.375 48.369v-14.65l222.375-48.369 222.375 48.369v14.649z"/><path d="m101.804 270.525h347.393v-144h-347.393zm236.594-129h95.798v114h-95.798zm-110.796 0h95.797v114h-95.797zm-110.798 0h95.798v114h-95.798z"/></g></svg>