<svg id="Capa_1" enable-background="new 0 0 511.999 511.999" height="512" viewBox="0 0 511.999 511.999" width="512" xmlns="http://www.w3.org/2000/svg"><path d="m109.34 59.948h293.318v392.103h-293.318z" fill="#ebebeb"/><path d="m379.794 59.948h22.865v392.103h-22.865z" fill="#d3d1d1"/><path d="m402.659 59.948h-293.319v-23.157c0-16.177 13.114-29.291 29.291-29.291h234.737c16.177 0 29.291 13.114 29.291 29.291z" fill="#5a5a5a"/><path d="m402.662 36.792v23.157h-22.867v-23.157c0-16.179-13.115-29.294-29.294-29.294h22.867c16.179-.001 29.294 13.115 29.294 29.294z" fill="#444"/><path d="m373.368 504.499h-234.737c-16.177 0-29.291-13.114-29.291-29.291v-23.157h293.318v23.157c.001 16.177-13.113 29.291-29.29 29.291z" fill="#5a5a5a"/><path d="m402.662 452.05v23.157c0 16.179-13.115 29.294-29.294 29.294h-22.867c16.179 0 29.294-13.116 29.294-29.294v-23.157z" fill="#444"/><path d="m362.365 314.919h-212.727c-3.038 0-5.501-2.463-5.501-5.501v-19.936c0-3.038 2.463-5.501 5.501-5.501h212.727c3.038 0 5.501 2.463 5.501 5.501v19.936c0 3.038-2.463 5.501-5.501 5.501z" fill="#8ac9fe"/><path d="m362.365 370.22h-212.727c-3.038 0-5.501-2.463-5.501-5.501v-19.936c0-3.038 2.463-5.501 5.501-5.501h212.727c3.038 0 5.501 2.463 5.501 5.501v19.936c0 3.038-2.463 5.501-5.501 5.501z" fill="#8ac9fe"/><path d="m362.365 424.951h-79.255c-3.038 0-5.501-2.463-5.501-5.501v-19.936c0-3.038 2.463-5.501 5.501-5.501h79.255c3.038 0 5.501 2.463 5.501 5.501v19.936c0 3.038-2.463 5.501-5.501 5.501z" fill="#fb2b3a"/><path d="m367.863 289.485v19.929c0 3.044-2.461 5.505-5.495 5.505h-212.733c-3.035 0-5.495-2.461-5.495-5.505v-9.969h204.368c3.035 0 5.495-2.461 5.495-5.495v-9.969h8.364c3.035-.001 5.496 2.46 5.496 5.504z" fill="#60b7ff"/><path d="m367.863 344.781v19.939c0 3.035-2.461 5.495-5.495 5.495h-212.733c-3.035 0-5.495-2.461-5.495-5.495v-9.969h204.368c3.035 0 5.495-2.461 5.495-5.505v-9.96h8.364c3.035 0 5.496 2.461 5.496 5.495z" fill="#60b7ff"/><path d="m367.863 399.517v19.929c0 3.044-2.461 5.505-5.495 5.505h-79.259c-3.035 0-5.495-2.461-5.495-5.505v-9.96h70.894c3.035 0 5.495-2.47 5.495-5.505v-9.969h8.364c3.035 0 5.496 2.461 5.496 5.505z" fill="#e41f2d"/><path d="m171.349 258.125h-18.356c-4.68 0-8.474-3.794-8.474-8.474v-50.013h35.304v50.013c0 4.68-3.794 8.474-8.474 8.474z" fill="#5a5a5a"/><path d="m358.936 258.125h-18.356c-4.68 0-8.474-3.794-8.474-8.474v-50.013h35.304v50.013c0 4.68-3.794 8.474-8.474 8.474z" fill="#5a5a5a"/><path d="m179.823 199.638v50.014c0 4.681-3.792 8.473-8.473 8.473h-13.416c4.681 0 8.473-3.792 8.473-8.473v-50.014z" fill="#444"/><path d="m367.41 199.638v50.014c0 4.681-3.792 8.473-8.473 8.473h-13.418c4.681 0 8.477-3.792 8.477-8.473v-50.014z" fill="#444"/><path d="m367.406 183.985v16.155c0 4.348-1.634 8.53-4.591 11.72l-27.136 29.305c-2.538 2.752-6.118 4.309-9.862 4.309h-139.708c-3.745 0-7.314-1.556-9.863-4.309l-4.931-5.33-22.205-23.975c-2.947-3.19-4.591-7.373-4.591-11.72v-16.155c0-8.219 4.844-15.669 12.353-19.005l6.935-3.083h184.312l6.945 3.083c.165.068.321.146.486.224 4.921 2.334 8.637 6.468 10.504 11.399.019.049.039.107.058.165.671 1.799 1.07 3.706 1.206 5.661.019.165.029.331.039.496.01.156.019.311.029.467.02.204.02.398.02.593z" fill="#fac600"/><path d="m327.163 120.701c-3.199-6.27-9.644-10.216-16.683-10.216h-54.516-54.516c-7.039 0-13.483 3.947-16.683 10.216l-21.019 41.192h92.217 92.217z" fill="#8ac9fe"/><path d="m348.183 161.892h-14.15l-21.017-41.19c-3.199-6.271-9.645-10.215-16.683-10.215h14.15c7.038 0 13.48 3.943 16.679 10.215z" fill="#60b7ff"/><path d="m277.225 87.048h-43.418c-2.533 0-4.841 1.456-5.933 3.742l-9.405 19.698h37.046 37.046l-9.405-19.698c-1.09-2.287-3.398-3.742-5.931-3.742z" fill="#fac600"/><path d="m292.561 110.487h-13.703l-9.407-19.698c-1.09-2.288-3.4-3.741-5.93-3.741h13.703c2.535 0 4.845 1.453 5.935 3.741z" fill="#e0ae10"/><path d="m367.406 183.985v16.155c0 4.348-1.634 8.53-4.591 11.72l-27.136 29.305c-2.538 2.752-6.118 4.309-9.862 4.309h-139.708c-3.745 0-7.314-1.556-9.863-4.309l-7.15-7.907h149.163c4.027 0 7.878-1.585 10.621-4.377 8.297-8.433 21.787-22.682 21.787-22.682 3.764-3.822 4.941-12.352 4.883-17.838v-23.158c4.921 2.334 8.637 6.468 10.504 11.399.019.049.039.107.058.165.613 2.052 1.031 4.007 1.206 5.661.019.165.029.331.039.496.01.156.019.311.029.467.02.205.02.399.02.594z" fill="#e0ae10"/><path d="m262.63 201.392h-43.315c-2.111 0-3.594 2.077-2.91 4.074l4.694 13.69c.426 1.243 1.595 2.079 2.91 2.079h38.622 25.291c1.314 0 2.484-.835 2.91-2.079l4.694-13.69c.685-1.997-.799-4.074-2.91-4.074z" fill="#5a5a5a"/><path d="m295.526 205.466-4.695 13.692c-.426 1.243-1.598 2.076-2.912 2.076h-63.909c-1.319 0-2.487-.832-2.912-2.076l-2.869-8.371h60.521c1.281 0 2.416-.288 2.832-1.498l3.574-7.898h7.457c2.114 0 3.593 2.08 2.913 4.075z" fill="#444"/><circle cx="183.361" cy="194.359" fill="#ebebeb" r="13.019"/><circle cx="328.655" cy="194.359" fill="#ebebeb" r="13.019"/><path d="m373.368 0h-234.737c-20.287 0-36.791 16.504-36.791 36.791v438.417c0 20.287 16.504 36.791 36.791 36.791h234.737c20.286 0 36.791-16.504 36.791-36.791v-438.417c-.001-20.287-16.505-36.791-36.791-36.791zm21.79 475.208c0 12.016-9.775 21.791-21.791 21.791h-234.736c-12.015 0-21.791-9.775-21.791-21.791v-15.657h278.318zm0-30.657h-278.317v-377.103h278.318v377.103zm0-392.103h-278.317v-15.657c0-12.016 9.775-21.791 21.791-21.791h234.737c12.015 0 21.791 9.775 21.791 21.791v15.657z"/><path d="m241.735 484.749h28.532c4.142 0 7.5-3.358 7.5-7.5s-3.358-7.5-7.5-7.5h-28.532c-4.142 0-7.5 3.358-7.5 7.5s3.358 7.5 7.5 7.5z"/><path d="m149.638 322.419h212.727c7.169 0 13.001-5.833 13.001-13.001v-19.936c0-7.169-5.833-13.001-13.001-13.001h-120.329c-4.142 0-7.5 3.358-7.5 7.5s3.358 7.5 7.5 7.5h118.33v15.939h-208.73v-15.94h56.601c4.142 0 7.5-3.358 7.5-7.5s-3.358-7.5-7.5-7.5h-58.599c-7.169 0-13.001 5.833-13.001 13.001v19.936c-.001 7.169 5.832 13.002 13.001 13.002z"/><path d="m149.638 377.72h212.727c7.169 0 13.001-5.833 13.001-13.001v-19.936c0-7.169-5.833-13.001-13.001-13.001h-212.727c-7.169 0-13.001 5.833-13.001 13.001v19.936c-.001 7.169 5.832 13.001 13.001 13.001zm1.998-30.939h208.729v15.939h-208.729z"/><path d="m362.365 386.513h-79.255c-7.169 0-13.001 5.832-13.001 13.001v19.936c0 7.169 5.833 13.001 13.001 13.001h79.255c7.169 0 13.001-5.833 13.001-13.001v-19.936c0-7.169-5.833-13.001-13.001-13.001zm-1.999 30.938h-75.258v-15.938h75.258z"/><path d="m152.992 265.625h18.356c7.667 0 14.085-5.432 15.62-12.648h137.992c1.535 7.216 7.953 12.648 15.62 12.648h18.356c8.808 0 15.974-7.166 15.974-15.974v-65.67c0-11.171-6.596-21.32-16.804-25.857l-4.433-1.971-6.179-12.109c-1.883-3.69-6.402-5.153-10.089-3.272-3.689 1.883-5.154 6.4-3.272 10.089l1.802 3.532h-159.94l15.452-30.283c1.928-3.778 5.76-6.125 10.002-6.125h16.983c.013 0 .025.002.038.002h74.093c.013 0 .025-.002.038-.002h17.88c3.421 0 6.612 1.529 8.754 4.196 2.594 3.228 7.314 3.743 10.544 1.15 3.229-2.594 3.744-7.315 1.15-10.544-5.004-6.229-12.458-9.802-20.449-9.802h-13.189l-7.365-15.426c-2.323-4.866-7.309-8.011-12.701-8.011h-43.418c-5.393 0-10.378 3.145-12.701 8.01l-7.366 15.427h-12.292c-9.908 0-18.86 5.482-23.363 14.308l-19.829 38.861-4.433 1.97c-10.208 4.537-16.805 14.687-16.805 25.857v65.67c.001 8.808 7.166 15.974 15.974 15.974zm81.399-171.077h42.25l4.028 8.437h-50.306zm125.519 155.103c0 .537-.437.974-.974.974h-18.356c-.537 0-.974-.437-.974-.974v-1.857c.551-.481 1.078-.991 1.579-1.532l18.725-20.223zm-207.891-65.67c0-5.249 3.1-10.018 7.897-12.15l5.484-2.438h181.13l5.484 2.438c4.797 2.132 7.896 6.901 7.896 12.15v16.157c0 2.465-.922 4.819-2.597 6.627l-27.134 29.305c-1.122 1.211-2.712 1.906-4.363 1.906h-139.703c-1.651 0-3.241-.694-4.362-1.906l-27.135-29.306c-1.675-1.808-2.597-4.162-2.597-6.627zm0 42.058 18.726 20.224c.5.54 1.028 1.051 1.578 1.532v1.857c0 .537-.437.974-.974.974h-18.356c-.537 0-.974-.437-.974-.974z"/><path d="m214.004 221.589c1.466 4.274 5.486 7.146 10.004 7.146h63.913c4.518 0 8.539-2.872 10.004-7.146l4.694-13.69c1.105-3.224.583-6.804-1.398-9.578-1.98-2.773-5.198-4.429-8.606-4.429h-73.3c-3.408 0-6.625 1.656-8.606 4.429s-2.503 6.354-1.398 9.578zm72.417-12.697-1.66 4.843h-57.592l-1.66-4.843z"/><path d="m183.361 214.878c11.314 0 20.519-9.205 20.519-20.519s-9.205-20.519-20.519-20.519-20.519 9.205-20.519 20.519 9.205 20.519 20.519 20.519zm0-26.038c3.043 0 5.519 2.476 5.519 5.519s-2.476 5.519-5.519 5.519-5.519-2.476-5.519-5.519 2.476-5.519 5.519-5.519z"/><path d="m328.655 214.878c11.314 0 20.519-9.205 20.519-20.519s-9.205-20.519-20.519-20.519-20.519 9.205-20.519 20.519 9.205 20.519 20.519 20.519zm0-26.038c3.043 0 5.519 2.476 5.519 5.519s-2.476 5.519-5.519 5.519-5.519-2.476-5.519-5.519 2.476-5.519 5.519-5.519z"/></svg>